<svg width="17" height="17" viewBox="0 0 17 17" fill="none" xmlns="http://www.w3.org/2000/svg">
<path d="M3.13894 16.7157H9.80489C9.86091 16.715 9.91643 16.7044 9.96863 16.6843C10.0208 16.6637 10.0689 16.6337 10.1104 16.596L15.753 11.262C15.7972 11.2212 15.8326 11.1719 15.8569 11.117C15.8791 11.0651 15.8919 11.0096 15.8948 10.9533V6.14817C15.8948 5.8872 15.6832 5.67575 15.4223 5.67575C15.1615 5.67575 14.9501 5.88719 14.9501 6.14817V10.446H12.0468C11.3269 10.4477 10.6371 10.7346 10.1282 11.2441C9.61944 11.7534 9.33335 12.4436 9.33254 13.1635V15.7707H3.13893C2.66952 15.7707 2.21939 15.5843 1.88761 15.2524C1.55566 14.9206 1.36914 14.4705 1.36914 14.0011V3.95341C1.36914 3.48383 1.55547 3.03337 1.88727 2.70107C2.21905 2.36862 2.66918 2.18145 3.13893 2.18064H10.9921C11.2529 2.18064 11.4644 1.9692 11.4644 1.70839C11.4644 1.44742 11.2529 1.23596 10.9921 1.23596H3.13893C2.41901 1.23762 1.72901 1.52469 1.22037 2.034C0.711563 2.54332 0.425308 3.23349 0.4245 3.95337V14.001C0.425331 14.7206 0.711568 15.4106 1.22054 15.9194C1.72935 16.4282 2.41918 16.7145 3.13893 16.7153L3.13894 16.7157ZM12.047 11.391H14.2512L10.2774 15.1476V13.1638C10.2774 12.6942 10.4637 12.2437 10.7955 11.9114C11.1273 11.579 11.5774 11.3918 12.047 11.391Z" fill="black"/>
<path d="M14.7709 0.146758C14.6457 0.147589 14.526 0.19729 14.4371 0.285222L7.26729 7.45501C7.21626 7.5077 7.17753 7.5712 7.15393 7.64085L6.30686 10.2417C6.25367 10.4105 6.29855 10.595 6.42339 10.7203C6.54889 10.8453 6.73323 10.8902 6.90211 10.8368L9.503 9.9866V9.98677C9.57249 9.96317 9.63598 9.92444 9.68868 9.87341L16.8555 2.70362C17.038 2.51844 17.038 2.22123 16.8555 2.03604L15.1048 0.285192C15.0162 0.196596 14.8962 0.146894 14.771 0.146729L14.7709 0.146758ZM9.10277 9.12378L7.4969 9.64969L8.02282 8.04382L14.7705 1.28637L15.8536 2.36948L9.10277 9.12378Z" fill="black"/>
</svg>
