<svg width="21" height="18" viewBox="0 0 21 18" fill="none" xmlns="http://www.w3.org/2000/svg">
<path d="M4.82269 17.9567C4.766 17.9667 4.70784 17.9667 4.65093 17.9567C4.47522 17.8844 4.36037 17.7135 4.35954 17.5234V14.2215H2.46208C2.00831 14.2215 1.5733 14.0412 1.25229 13.7204C0.931497 13.3996 0.751404 12.9644 0.751404 12.5108V1.94004C0.751404 1.48627 0.931497 1.05126 1.25229 0.73046C1.57328 0.409463 2.0083 0.22937 2.46208 0.22937H14.6166C14.8517 0.259177 15.0281 0.459072 15.0281 0.696277C15.0281 0.933273 14.8517 1.13338 14.6166 1.16318H2.46208C2.04958 1.16318 1.71503 1.49752 1.71503 1.91023V12.5184C1.71503 12.7166 1.79382 12.9067 1.93389 13.0468C2.07397 13.1868 2.26386 13.2654 2.46208 13.2654H4.82265C5.08258 13.2654 5.29331 13.4761 5.29331 13.7361V16.2761L8.03515 13.4747C8.12124 13.3799 8.24317 13.3257 8.37116 13.3253H18.6506C18.8488 13.3253 19.0387 13.2467 19.1788 13.1064C19.319 12.9663 19.3976 12.7764 19.3976 12.5782V5.8921C19.3807 5.75807 19.4222 5.62321 19.5114 5.52191C19.6009 5.4204 19.7295 5.36245 19.8645 5.36245C19.9998 5.36245 20.1284 5.42039 20.2176 5.52191C20.3071 5.62321 20.3485 5.75807 20.3314 5.8921V12.5184C20.3296 12.9657 20.1526 13.3945 19.8385 13.713C19.5242 14.0313 19.0979 14.2141 18.6506 14.2218H8.57285L5.16629 17.7853C5.07979 17.8866 4.95577 17.9485 4.82258 17.9571L4.82269 17.9567Z" fill="black"/>
<path d="M12.0766 3.98683H3.26882C3.03349 3.95702 2.85736 3.75692 2.85736 3.51992C2.85736 3.28292 3.03349 3.08282 3.26882 3.05301H12.0766C12.2106 3.03613 12.3454 3.07761 12.4469 3.16682C12.5483 3.25624 12.6064 3.38485 12.6064 3.51992C12.6064 3.6552 12.5483 3.7838 12.4469 3.87302C12.3454 3.96244 12.2106 4.00392 12.0766 3.98683Z" fill="black"/>
<path d="M9.30499 6.8182H3.26882C3.03349 6.7884 2.85736 6.58829 2.85736 6.3513C2.85736 6.11409 3.03349 5.9142 3.26882 5.88439H9.30499H9.30478C9.43901 5.8673 9.57388 5.90878 9.67518 5.9982C9.77669 6.08741 9.83463 6.21602 9.83463 6.3513C9.83463 6.48636 9.77669 6.61497 9.67518 6.7044C9.57388 6.79361 9.43901 6.83509 9.30478 6.8182H9.30499Z" fill="black"/>
<path d="M9.30499 9.64211H3.26882C3.03349 9.6123 2.85736 9.4122 2.85736 9.1752C2.85736 8.93821 3.03349 8.7381 3.26882 8.7083H9.30499H9.30478C9.43901 8.69141 9.57388 8.73269 9.67518 8.82211C9.77669 8.91153 9.83463 9.04013 9.83463 9.1752C9.83463 9.31028 9.77669 9.43888 9.67518 9.5283C9.57388 9.61773 9.43901 9.6592 9.30478 9.64211H9.30499Z" fill="black"/>
<path d="M11.2398 9.64206C11.0816 9.6454 10.9328 9.56765 10.8451 9.43591C10.7571 9.30418 10.7427 9.13701 10.8065 8.99214L11.9569 6.16818H11.9571C11.9838 6.10503 12.0247 6.04875 12.0766 6.00393L17.911 0.169465C18.0938 -0.00896241 18.3856 -0.00896241 18.5684 0.169465L20.2941 1.91015C20.385 1.99519 20.4365 2.11421 20.4361 2.23886C20.434 2.36267 20.3829 2.48086 20.2941 2.56757L14.6091 8.24516C14.5676 8.2906 14.5165 8.32624 14.4596 8.3498L11.4191 9.61984C11.3612 9.63776 11.3005 9.64527 11.2399 9.64214L11.2398 9.64206ZM12.8236 6.60903L12.0765 8.31242L14.0115 7.49802L19.2857 2.26867L18.2247 1.17792L12.8236 6.60903Z" fill="black"/>
</svg>
