<svg width="20" height="20" viewBox="0 0 20 20" fill="none" xmlns="http://www.w3.org/2000/svg">
<path d="M5.53953 3.34808C5.53953 3.60695 5.32969 3.81683 5.07078 3.81683H1.99945C1.6602 3.81683 1.38418 4.07277 1.38418 4.3873V7.33183C1.38418 7.5907 1.1743 7.80058 0.91543 7.80058C0.656523 7.80058 0.44668 7.5907 0.44668 7.33183V4.3873C0.44668 3.55582 1.14324 2.87933 1.99945 2.87933H5.07082C5.32969 2.87933 5.53953 3.08922 5.53953 3.34808ZM19.0846 12.1994C18.8257 12.1994 18.6158 12.4093 18.6158 12.6682V15.6127C18.6158 15.9273 18.3398 16.1832 18.0006 16.1832H14.9292C14.6703 16.1832 14.4604 16.3931 14.4604 16.652C14.4604 16.9108 14.6703 17.1207 14.9292 17.1207H18.0006C18.8568 17.1207 19.5533 16.4443 19.5533 15.6127V12.6682C19.5533 12.4093 19.3435 12.1994 19.0846 12.1994ZM4.9757 16.1832H1.90434C1.56504 16.1832 1.28906 15.9273 1.28906 15.6127V12.6681C1.28906 12.4093 1.07922 12.1994 0.820312 12.1994C0.561406 12.1994 0.351562 12.4093 0.351562 12.6681V15.6127C0.351562 16.4442 1.04812 17.1207 1.90434 17.1207H4.9757C5.23461 17.1207 5.44445 16.9108 5.44445 16.6519C5.44445 16.393 5.23461 16.1832 4.9757 16.1832ZM18.0957 2.87933H15.0243C14.7654 2.87933 14.5555 3.08922 14.5555 3.34808C14.5555 3.60695 14.7654 3.81683 15.0243 3.81683H18.0957C18.435 3.81683 18.7109 4.07277 18.7109 4.3873V7.33183C18.7109 7.5907 18.9208 7.80058 19.1797 7.80058C19.4386 7.80058 19.6484 7.5907 19.6484 7.33183V4.3873C19.6484 3.55582 18.9519 2.87933 18.0957 2.87933ZM4.43691 12.5311V7.62043C4.43691 7.36152 4.22707 7.15168 3.96816 7.15168C3.70926 7.15168 3.49941 7.36152 3.49941 7.62043V12.5311C3.49941 12.79 3.70926 12.9999 3.96816 12.9999C4.22707 12.9999 4.43691 12.79 4.43691 12.5311ZM7.98938 7.15168C7.73047 7.15168 7.52063 7.36152 7.52063 7.62043V12.5311C7.52063 12.79 7.73047 12.9999 7.98938 12.9999C8.24828 12.9999 8.45813 12.79 8.45813 12.5311V7.62043C8.45813 7.36152 8.24828 7.15168 7.98938 7.15168ZM12.0106 7.15168C11.7517 7.15168 11.5419 7.36152 11.5419 7.62043V12.5311C11.5419 12.79 11.7517 12.9999 12.0106 12.9999C12.2695 12.9999 12.4794 12.79 12.4794 12.5311V7.62043C12.4794 7.36152 12.2695 7.15168 12.0106 7.15168ZM16.5006 12.5311V7.62043C16.5006 7.36152 16.2907 7.15168 16.0318 7.15168C15.7729 7.15168 15.5631 7.36152 15.5631 7.62043V12.5311C15.5631 12.79 15.7729 12.9999 16.0318 12.9999C16.2907 12.9999 16.5006 12.79 16.5006 12.5311Z" fill="#F76B56"/>
</svg>
