<svg width="20" height="20" viewBox="0 0 20 20" fill="none" xmlns="http://www.w3.org/2000/svg">
<g clip-path="url(#clip0_1_922)">
<path d="M14.1667 16.6667H2.08333C1.531 16.666 1.00148 16.4463 0.610925 16.0557C0.220367 15.6652 0.000661607 15.1357 0 14.5833L0 2.08333C0 0.935 0.935 0 2.08333 0H8.75C8.83686 4.95826e-06 8.92155 0.0271571 8.99223 0.0776595C9.0629 0.128162 9.11602 0.199489 9.14417 0.281667L14.5608 16.115C14.5819 16.1777 14.5878 16.2446 14.5781 16.31C14.5683 16.3755 14.5432 16.4377 14.5047 16.4915C14.4662 16.5454 14.4155 16.5893 14.3568 16.6198C14.298 16.6502 14.2328 16.6663 14.1667 16.6667ZM2.08333 0.833333C1.39417 0.833333 0.833333 1.39417 0.833333 2.08333V14.5833C0.833333 15.2725 1.39417 15.8333 2.08333 15.8333H13.5833L8.4525 0.833333H2.08333Z" fill="#F76B56"/>
<path d="M17.9166 20H11.25C11.1652 20 11.0825 19.9742 11.0128 19.9259C10.9431 19.8777 10.8898 19.8093 10.86 19.73L9.60998 16.3967C9.57108 16.2932 9.57487 16.1786 9.6205 16.0779C9.66613 15.9773 9.74988 15.8989 9.85331 15.86C9.95675 15.8211 10.0714 15.8249 10.172 15.8705C10.2727 15.9162 10.3511 15.9999 10.39 16.1033L11.5391 19.1667H17.9166C18.6058 19.1667 19.1666 18.6058 19.1666 17.9167V5.41668C19.1666 4.72751 18.6058 4.16668 17.9166 4.16668H9.99998C9.88947 4.16668 9.78349 4.12278 9.70535 4.04464C9.62721 3.9665 9.58331 3.86052 9.58331 3.75001C9.58331 3.6395 9.62721 3.53352 9.70535 3.45538C9.78349 3.37724 9.88947 3.33334 9.99998 3.33334H17.9166C19.065 3.33334 20 4.26834 20 5.41668V17.9167C20 19.065 19.065 20 17.9166 20Z" fill="#F76B56"/>
<path d="M11.25 20C11.1698 20.0001 11.0914 19.977 11.024 19.9336C10.9566 19.8902 10.9032 19.8283 10.8701 19.7553C10.8371 19.6823 10.8257 19.6013 10.8375 19.522C10.8493 19.4427 10.8837 19.3686 10.9366 19.3083L13.8533 15.975C13.8894 15.9338 13.9332 15.9001 13.9823 15.8758C14.0313 15.8516 14.0847 15.8372 14.1394 15.8336C14.194 15.8299 14.2488 15.8371 14.3007 15.8546C14.3525 15.8722 14.4004 15.8998 14.4416 15.9358C14.4828 15.9719 14.5165 16.0157 14.5408 16.0648C14.5651 16.1139 14.5794 16.1673 14.5831 16.2219C14.5867 16.2765 14.5795 16.3313 14.562 16.3832C14.5445 16.4351 14.5169 16.483 14.4808 16.5242L11.5641 19.8575C11.5249 19.9022 11.4766 19.9381 11.4224 19.9626C11.3683 19.9872 11.3095 20 11.25 20ZM7.91664 11.6667C7.83064 11.6668 7.74671 11.6403 7.67642 11.5907C7.60612 11.5412 7.55292 11.4711 7.52414 11.39L5.83331 6.65584L4.14247 11.39C4.10534 11.4941 4.02838 11.5792 3.92852 11.6265C3.82865 11.6739 3.71407 11.6796 3.60997 11.6425C3.50588 11.6054 3.42079 11.5284 3.37344 11.4286C3.32609 11.3287 3.32034 11.2141 3.35747 11.11L5.44081 5.27667C5.55914 4.94501 6.10747 4.94501 6.22497 5.27667L8.30831 11.11C8.33072 11.1728 8.33772 11.2401 8.32873 11.3062C8.31973 11.3723 8.29501 11.4352 8.25663 11.4898C8.21826 11.5443 8.16735 11.5889 8.10818 11.6196C8.04902 11.6504 7.98333 11.6666 7.91664 11.6667Z" fill="#F76B56"/>
<path d="M6.66665 9.16668H4.99998C4.88947 9.16668 4.78349 9.12278 4.70535 9.04464C4.62721 8.9665 4.58331 8.86052 4.58331 8.75001C4.58331 8.6395 4.62721 8.53352 4.70535 8.45538C4.78349 8.37724 4.88947 8.33334 4.99998 8.33334H6.66665C6.77715 8.33334 6.88313 8.37724 6.96127 8.45538C7.03941 8.53352 7.08331 8.6395 7.08331 8.75001C7.08331 8.86052 7.03941 8.9665 6.96127 9.04464C6.88313 9.12278 6.77715 9.16668 6.66665 9.16668ZM17.9166 9.16668H12.0833C11.9728 9.16668 11.8668 9.12278 11.7887 9.04464C11.7105 8.9665 11.6666 8.86052 11.6666 8.75001C11.6666 8.6395 11.7105 8.53352 11.7887 8.45538C11.8668 8.37724 11.9728 8.33334 12.0833 8.33334H17.9166C18.0272 8.33334 18.1331 8.37724 18.2113 8.45538C18.2894 8.53352 18.3333 8.6395 18.3333 8.75001C18.3333 8.86052 18.2894 8.9665 18.2113 9.04464C18.1331 9.12278 18.0272 9.16668 17.9166 9.16668Z" fill="#F76B56"/>
<path d="M14.5833 9.16667C14.4728 9.16667 14.3668 9.12277 14.2887 9.04463C14.2106 8.96649 14.1667 8.86051 14.1667 8.75V7.91667C14.1667 7.80616 14.2106 7.70018 14.2887 7.62204C14.3668 7.5439 14.4728 7.5 14.5833 7.5C14.6938 7.5 14.7998 7.5439 14.878 7.62204C14.9561 7.70018 15 7.80616 15 7.91667V8.75C15 8.86051 14.9561 8.96649 14.878 9.04463C14.7998 9.12277 14.6938 9.16667 14.5833 9.16667ZM13.3333 14.1667C13.2445 14.1677 13.1577 14.1403 13.0857 14.0883C13.0136 14.0364 12.9602 13.9627 12.9331 13.8781C12.9061 13.7935 12.9069 13.7024 12.9354 13.6183C12.9639 13.5342 13.0187 13.4615 13.0917 13.4108C14.9158 12.115 16.25 9.47167 16.25 8.75083C16.25 8.64033 16.2939 8.53435 16.372 8.45621C16.4502 8.37807 16.5562 8.33417 16.6667 8.33417C16.7772 8.33417 16.8832 8.37807 16.9613 8.45621C17.0394 8.53435 17.0833 8.64033 17.0833 8.75083C17.0833 9.84917 15.4775 12.7383 13.575 14.0908C13.5041 14.1402 13.4198 14.1667 13.3333 14.1667Z" fill="#F76B56"/>
<path d="M16.6667 15C16.5626 15.0004 16.4623 14.9614 16.3859 14.8908C16.0834 14.6142 13.4209 12.155 12.9475 10.99C12.9103 10.8886 12.9139 10.7766 12.9576 10.6778C13.0014 10.579 13.0818 10.501 13.1819 10.4604C13.282 10.4197 13.394 10.4195 13.4943 10.4599C13.5945 10.5003 13.6752 10.578 13.7192 10.6767C14.06 11.5158 16.1659 13.5592 16.9484 14.2758C17.0104 14.3325 17.0538 14.4067 17.0729 14.4885C17.092 14.5703 17.086 14.6561 17.0555 14.7344C17.025 14.8127 16.9716 14.88 16.9022 14.9274C16.8328 14.9748 16.7507 15.0001 16.6667 15Z" fill="#F76B56"/>
</g>
<defs>
<clipPath id="clip0_1_922">
<rect width="20" height="20" fill="white"/>
</clipPath>
</defs>
</svg>
