<svg width="30" height="31" viewBox="0 0 30 31" fill="none" xmlns="http://www.w3.org/2000/svg">
<path d="M14.645 24.4107L14.6384 24.4072L14.6158 24.3949C14.5965 24.3844 14.5689 24.3693 14.5336 24.3496C14.4629 24.3101 14.3612 24.2524 14.233 24.1769C13.9765 24.0261 13.6132 23.8039 13.1785 23.515C12.3107 22.9381 11.1512 22.0901 9.9886 21.0063C7.68781 18.8615 5.25 15.6751 5.25 11.75C5.25 8.82194 7.7136 6.5 10.6875 6.5C12.4364 6.5 14.0023 7.29909 15 8.5516C15.9977 7.29909 17.5636 6.5 19.3125 6.5C22.2864 6.5 24.75 8.82194 24.75 11.75C24.75 15.6751 22.3122 18.8615 20.0114 21.0063C18.8488 22.0901 17.6893 22.9381 16.8215 23.515C16.3868 23.8039 16.0235 24.0261 15.767 24.1769C15.6388 24.2524 15.5371 24.3101 15.4664 24.3496C15.4311 24.3693 15.4035 24.3844 15.3842 24.3949L15.3616 24.4072L15.355 24.4107L15.3523 24.4121C15.1323 24.5289 14.8677 24.5289 14.6477 24.4121L14.645 24.4107Z" fill="#F34040"/>
</svg>
