<svg width="623" height="383" viewBox="0 0 623 383" fill="none" xmlns="http://www.w3.org/2000/svg">
<path d="M13.0381 158L36.8418 36.418L75.6602 124.309L115.87 36.418L137.257 158H119.752L108.839 89.7383L75.3672 163.2L42.8477 89.665L30.6895 158H13.0381ZM180.616 144.743L148.536 86.6621H167.652L189.479 127.678L209.84 86.6621H228.443L171.607 196.818H152.784L180.616 144.743Z" fill="#4D4D4D"/>
<path d="M289.161 158V44.9141H306.153C313.722 44.9141 319.752 45.5 324.244 46.6719C328.785 47.8438 332.618 49.8213 335.743 52.6045C338.917 55.4854 341.432 59.0742 343.287 63.3711C345.191 67.7168 346.144 72.1113 346.144 76.5547C346.144 84.6602 343.043 91.5205 336.842 97.1357C342.848 99.1865 347.584 102.775 351.051 107.902C354.566 112.98 356.324 118.889 356.324 125.627C356.324 134.465 353.199 141.936 346.949 148.039C343.189 151.799 338.966 154.411 334.278 155.876C329.151 157.292 322.73 158 315.016 158H289.161ZM306.227 93.4736H311.573C317.921 93.4736 322.56 92.082 325.489 89.2988C328.468 86.4668 329.957 82.3164 329.957 76.8477C329.957 71.5254 328.443 67.4971 325.416 64.7627C322.389 61.9795 317.994 60.5879 312.232 60.5879H306.227V93.4736ZM306.227 141.96H316.773C324.488 141.96 330.152 140.446 333.766 137.419C337.574 134.147 339.479 129.997 339.479 124.968C339.479 120.085 337.647 115.983 333.985 112.663C330.421 109.392 324.049 107.756 314.869 107.756H306.227V141.96ZM371.412 121.818C371.412 111.516 375.099 102.751 382.472 95.5244C389.845 88.2979 398.829 84.6846 409.425 84.6846C420.069 84.6846 429.103 88.3223 436.524 95.5977C443.849 102.873 447.511 111.809 447.511 122.404C447.511 133.098 443.824 142.058 436.451 149.284C429.029 156.462 419.923 160.051 409.132 160.051C398.438 160.051 389.479 156.389 382.252 149.064C375.025 141.838 371.412 132.756 371.412 121.818ZM388.258 122.111C388.258 129.24 390.162 134.88 393.971 139.03C397.877 143.229 403.028 145.329 409.425 145.329C415.87 145.329 421.021 143.254 424.879 139.104C428.736 134.953 430.665 129.411 430.665 122.478C430.665 115.544 428.736 110.002 424.879 105.852C420.973 101.652 415.821 99.5527 409.425 99.5527C403.126 99.5527 398.023 101.652 394.117 105.852C390.211 110.051 388.258 115.471 388.258 122.111ZM461.646 121.818C461.646 111.516 465.333 102.751 472.706 95.5244C480.079 88.2979 489.063 84.6846 499.659 84.6846C510.304 84.6846 519.337 88.3223 526.759 95.5977C534.083 102.873 537.745 111.809 537.745 122.404C537.745 133.098 534.059 142.058 526.686 149.284C519.264 156.462 510.157 160.051 499.366 160.051C488.673 160.051 479.713 156.389 472.486 149.064C465.26 141.838 461.646 132.756 461.646 121.818ZM478.492 122.111C478.492 129.24 480.396 134.88 484.205 139.03C488.111 143.229 493.263 145.329 499.659 145.329C506.104 145.329 511.256 143.254 515.113 139.104C518.971 134.953 520.899 129.411 520.899 122.478C520.899 115.544 518.971 110.002 515.113 105.852C511.207 101.652 506.056 99.5527 499.659 99.5527C493.36 99.5527 488.258 101.652 484.352 105.852C480.445 110.051 478.492 115.471 478.492 122.111ZM571.729 34.2939V109.733L594.947 86.6621H617.066L586.085 116.618L619.337 158H597.95L574.366 127.897L571.729 130.534V158H555.25V34.2939H571.729Z" fill="url(#paint0_linear_1_2998)"/>
<path d="M105.676 251.68L87.2188 262.617C83.7682 256.628 80.4805 252.721 77.3555 250.898C74.1003 248.815 69.901 247.773 64.7578 247.773C58.4427 247.773 53.2018 249.564 49.0352 253.145C44.8685 256.66 42.7852 261.087 42.7852 266.426C42.7852 273.783 48.2539 279.707 59.1914 284.199L74.2305 290.352C86.4701 295.299 95.4219 301.354 101.086 308.516C106.75 315.612 109.582 324.336 109.582 334.688C109.582 348.555 104.96 360.013 95.7148 369.062C86.4049 378.177 74.849 382.734 61.0469 382.734C47.9609 382.734 37.1536 378.861 28.625 371.113C20.2266 363.366 14.9857 352.461 12.9023 338.398L35.9492 333.32C36.9909 342.174 38.8138 348.294 41.418 351.68C46.1055 358.19 52.9414 361.445 61.9258 361.445C69.0221 361.445 74.9141 359.069 79.6016 354.316C84.2891 349.564 86.6328 343.542 86.6328 336.25C86.6328 333.32 86.2096 330.651 85.3633 328.242C84.582 325.768 83.3125 323.522 81.5547 321.504C79.862 319.421 77.6484 317.5 74.9141 315.742C72.1797 313.919 68.9245 312.194 65.1484 310.566L50.5977 304.512C29.9596 295.788 19.6406 283.027 19.6406 266.23C19.6406 254.902 23.9701 245.43 32.6289 237.812C41.2878 230.13 52.0625 226.289 64.9531 226.289C82.3359 226.289 95.9102 234.753 105.676 251.68ZM175.824 215.059H197.797V292.793C205.609 285.762 214.236 282.246 223.676 282.246C234.418 282.246 243.012 285.729 249.457 292.695C254.926 298.75 257.66 308.418 257.66 321.699V380H235.688V323.75C235.688 316.133 234.32 310.632 231.586 307.246C228.917 303.796 224.587 302.07 218.598 302.07C210.915 302.07 205.512 304.447 202.387 309.199C199.327 314.017 197.797 322.285 197.797 334.004V380H175.824V215.059ZM415.211 337.617H347.047C347.633 345.43 350.172 351.647 354.664 356.27C359.156 360.827 364.918 363.105 371.949 363.105C377.418 363.105 381.943 361.803 385.523 359.199C389.039 356.595 393.043 351.777 397.535 344.746L416.09 355.098C413.225 359.98 410.198 364.18 407.008 367.695C403.818 371.146 400.4 374.01 396.754 376.289C393.108 378.503 389.169 380.13 384.938 381.172C380.706 382.214 376.116 382.734 371.168 382.734C356.975 382.734 345.582 378.177 336.988 369.062C328.395 359.883 324.098 347.708 324.098 332.539C324.098 317.5 328.264 305.326 336.598 296.016C344.996 286.836 356.129 282.246 369.996 282.246C383.993 282.246 395.061 286.706 403.199 295.625C411.272 304.479 415.309 316.751 415.309 332.441L415.211 337.617ZM392.652 319.648C389.592 307.93 382.203 302.07 370.484 302.07C367.815 302.07 365.309 302.493 362.965 303.34C360.621 304.121 358.473 305.293 356.52 306.855C354.632 308.353 353.004 310.176 351.637 312.324C350.27 314.473 349.228 316.914 348.512 319.648H392.652ZM504.305 215.059V380H482.332V215.059H504.305ZM597.891 305.391V380H575.82V305.391H568.008V284.883H575.82V248.164C575.82 236.185 577.904 227.721 582.07 222.773C587.799 215.872 596.133 212.422 607.07 212.422C610.977 212.422 615.892 213.561 621.816 215.84V238.301L619.57 237.129C614.818 234.72 610.911 233.516 607.852 233.516C603.945 233.516 601.309 234.915 599.941 237.715C598.574 240.449 597.891 245.723 597.891 253.535V284.883H621.816V305.391H597.891Z" fill="#4D4D4D"/>
<defs>
<linearGradient id="paint0_linear_1_2998" x1="285.5" y1="102" x2="652" y2="126" gradientUnits="userSpaceOnUse">
<stop stop-color="#EE7A3A"/>
<stop offset="1" stop-color="#EA357D"/>
</linearGradient>
</defs>
</svg>
