<svg width="22" height="21" viewBox="0 0 22 21" fill="none" xmlns="http://www.w3.org/2000/svg">
<g clip-path="url(#clip0_1_353)">
<path d="M3.86656 12.1898H0.637812C0.565625 12.1898 0.5 12.2489 0.5 12.3277V18.8311C0.5 18.9066 0.565625 18.9689 0.637812 18.9689H3.86328C3.94203 18.9689 4.00109 18.9033 4.00109 18.8311V12.3277C4.00191 12.3096 3.99901 12.2916 3.99258 12.2747C3.98615 12.2579 3.97632 12.2425 3.96371 12.2296C3.9511 12.2167 3.93597 12.2065 3.91926 12.1996C3.90255 12.1928 3.88461 12.1895 3.86656 12.1898ZM2.61641 18.3586C2.30469 18.3586 2.04875 18.1027 2.04875 17.7909C2.04875 17.4759 2.30469 17.22 2.61641 17.22C2.93141 17.22 3.18734 17.4759 3.18734 17.7909C3.18734 18.1027 2.93141 18.3586 2.61641 18.3586ZM20.6305 14.8444L15.4625 16.5473C15.2623 16.7311 14.9998 16.8361 14.7308 16.8361H9.34953C9.30471 16.8361 9.26173 16.8183 9.23004 16.7866C9.19835 16.7549 9.18055 16.7119 9.18055 16.6671C9.18055 16.6223 9.19835 16.5793 9.23004 16.5476C9.26173 16.5159 9.30471 16.4981 9.34953 16.4981H14.7308C14.9178 16.4981 15.0983 16.4259 15.2361 16.3012C15.2459 16.2881 15.2591 16.2783 15.2722 16.2652C15.4002 16.1306 15.4723 15.9469 15.4723 15.7533C15.4723 15.3431 15.1409 15.0084 14.7308 15.0084H11.0164C10.918 15.0084 10.8327 14.9723 10.7638 14.8969C9.1625 13.0791 6.22906 12.8034 4.62125 12.8034C4.52281 12.8034 4.42766 12.8067 4.33906 12.8067V18.1027L9.27734 19.7859C10.4455 20.183 11.6956 20.288 12.9261 20.0681C13.7088 19.9318 14.4644 19.6703 15.1639 19.2937L21.1555 16.0387C21.3687 15.9239 21.4967 15.7041 21.4967 15.4645C21.4967 15.3661 21.477 15.2742 21.4311 15.1856C21.3636 15.0397 21.2444 14.924 21.0965 14.8609C20.9485 14.7979 20.7825 14.792 20.6305 14.8444ZM9.22484 3.69141L9.20187 5.28938C9.20187 5.30578 9.21172 5.31563 9.22484 5.31563H21.4803C21.4902 5.31563 21.5 5.30578 21.5 5.28938V3.71109L9.22484 3.69141ZM14.4388 12.9084V5.64703H9.80562V12.7378C9.80562 12.833 9.88109 12.9117 9.97625 12.9117H14.4388V12.9084ZM20.8995 12.7378V5.64703H16.2631V12.9084H20.7289C20.8208 12.9084 20.8995 12.8297 20.8995 12.7378ZM14.7734 5.64703H15.9317V12.9084H14.7734V5.64703ZM13.4511 3.30094L14.2222 3.55688H16.3452L17.1195 3.30094C17.326 3.23334 17.5116 3.11354 17.6582 2.95315C17.8048 2.79276 17.9075 2.59721 17.9563 2.38547C18.0613 1.95563 17.9333 1.50938 17.6183 1.19109C17.3787 0.948282 17.0605 0.817032 16.7225 0.817032C16.6208 0.817032 16.5223 0.830157 16.4239 0.853126C16.2122 0.901983 16.0167 1.00468 15.8563 1.15126C15.6959 1.29785 15.5761 1.48337 15.5084 1.68984L15.2886 2.35594L15.0655 1.68984C14.9178 1.26656 14.5766 0.951563 14.1434 0.853126C13.9321 0.801507 13.711 0.805508 13.5017 0.864736C13.2924 0.923965 13.102 1.0364 12.9491 1.19109C12.6341 1.50609 12.5061 1.95234 12.6078 2.38547C12.6586 2.59735 12.7627 2.79271 12.9103 2.95296C13.0579 3.1132 13.2441 3.233 13.4511 3.30094ZM16.2041 1.92281C16.2631 1.74563 16.4075 1.61438 16.588 1.57172C16.6306 1.56188 16.6733 1.55531 16.7127 1.55531C16.8538 1.55531 16.9883 1.61109 17.0867 1.71281C17.218 1.84078 17.2738 2.03109 17.2311 2.21156C17.1852 2.39531 17.0539 2.53969 16.8767 2.59875L15.8595 2.93672L16.2041 1.92281ZM13.4708 1.71609C13.5725 1.61438 13.707 1.55859 13.8481 1.55859C13.8908 1.55859 13.9334 1.56516 13.9761 1.575C14.1566 1.61766 14.3009 1.74891 14.36 1.92609L14.698 2.94328L13.6808 2.60531C13.5036 2.54625 13.3723 2.40188 13.3264 2.22141C13.287 2.03438 13.3395 1.84734 13.4708 1.71609Z" fill="#8A8A8A"/>
</g>
<defs>
<clipPath id="clip0_1_353">
<rect width="21" height="21" fill="white" transform="translate(0.5)"/>
</clipPath>
</defs>
</svg>
