<svg width="23" height="23" viewBox="0 0 23 23" fill="none" xmlns="http://www.w3.org/2000/svg">
<path fill-rule="evenodd" clip-rule="evenodd" d="M10.6869 2.63683C11.136 2.18773 11.8642 2.18773 12.3133 2.63683L20.3633 10.6868C20.6922 11.0157 20.7905 11.5104 20.6125 11.9401C20.4345 12.3698 20.0152 12.65 19.5501 12.65H18.4001V19.55C18.4001 20.1851 17.8852 20.7 17.2501 20.7H14.9501C14.315 20.7 13.8001 20.1851 13.8001 19.55V16.1C13.8001 15.4649 13.2852 14.95 12.6501 14.95H10.3501C9.71495 14.95 9.20008 15.4649 9.20008 16.1V19.55C9.20008 20.1851 8.68521 20.7 8.05008 20.7H5.75008C5.11495 20.7 4.60008 20.1851 4.60008 19.55V12.65H3.45008C2.98495 12.65 2.56562 12.3698 2.38762 11.9401C2.20962 11.5104 2.30801 11.0157 2.63691 10.6868L10.6869 2.63683Z" fill="#8A8A8A"/>
</svg>
